<svg width="0" height="0" class="hidden">
  <symbol xmlns="http://www.w3.org/2000/svg" fill="none" viewBox="0 0 20 20" id="icon-add">
    <path stroke="#051513" stroke-linecap="round" stroke-linejoin="round" stroke-width="1.6" d="M10 4.167v11.666M4.167 10h11.667"></path>
  </symbol>
  <symbol xmlns="http://www.w3.org/2000/svg" fill="none" viewBox="0 0 20 20" id="icon-archive">
    <path stroke="#051513" stroke-linecap="round" stroke-linejoin="round" stroke-width="1.6" d="M3.334 6.664a2 2 0 0 1-.325-.03 1.67 1.67 0 0 1-1.31-1.309c-.032-.16-.032-.354-.032-.742 0-.387 0-.58.032-.741a1.67 1.67 0 0 1 1.31-1.31c.16-.032.354-.032.741-.032h12.5c.387 0 .581 0 .742.032a1.67 1.67 0 0 1 1.31 1.31c.032.16.032.354.032.741 0 .388 0 .581-.032.742a1.67 1.67 0 0 1-1.31 1.31 2 2 0 0 1-.325.029m-8.333 4.17h3.333M3.334 6.666h13.333V13.5c0 1.4 0 2.1-.273 2.635a2.5 2.5 0 0 1-1.092 1.092c-.535.273-1.235.273-2.635.273H7.334c-1.4 0-2.1 0-2.635-.273a2.5 2.5 0 0 1-1.093-1.092c-.272-.535-.272-1.235-.272-2.635z"></path>
  </symbol>
  <symbol xmlns="http://www.w3.org/2000/svg" fill="none" viewBox="0 0 20 20" id="icon-check">
    <path stroke="currentColor" stroke-linecap="round" stroke-linejoin="round" stroke-width="1.6" d="M16.666 5 7.5 14.167 3.333 10"></path>
  </symbol>
  <symbol xmlns="http://www.w3.org/2000/svg" fill="none" viewBox="0 0 20 20" id="icon-close">
    <path stroke="currentColor" stroke-linecap="round" stroke-linejoin="round" stroke-width="1.6" d="M15 5 5 15M5 5l10 10"></path>
  </symbol>
  <symbol xmlns="http://www.w3.org/2000/svg" fill="none" viewBox="0 0 20 20" id="icon-copy">
    <g clip-path="url(#a)">
      <path stroke="#051513" stroke-linecap="round" stroke-linejoin="round" stroke-width="1.6" d="M4.167 12.5c-.777 0-1.165 0-1.471-.127a1.67 1.67 0 0 1-.902-.902c-.127-.306-.127-.694-.127-1.471V4.333c0-.933 0-1.4.182-1.756.16-.314.414-.569.728-.729.357-.181.823-.181 1.757-.181H10c.777 0 1.165 0 1.472.127.408.169.732.493.902.902.126.306.126.694.126 1.47m-2.333 14.167h5.5c.933 0 1.4 0 1.757-.181.313-.16.568-.415.728-.729.182-.356.182-.823.182-1.756v-5.5c0-.934 0-1.4-.182-1.757a1.67 1.67 0 0 0-.728-.728C17.067 7.5 16.6 7.5 15.667 7.5h-5.5c-.933 0-1.4 0-1.757.182-.313.16-.568.414-.728.728-.182.357-.182.823-.182 1.757v5.5c0 .933 0 1.4.182 1.756.16.314.415.569.728.729.357.181.824.181 1.757.181"></path>
    </g>
    <defs>
      <clipPath id="a">
        <path fill="#fff" d="M0 0h20v20H0z"></path>
      </clipPath>
    </defs>
  </symbol>
  <symbol xmlns="http://www.w3.org/2000/svg" fill="none" viewBox="0 0 20 20" id="icon-created">
    <path stroke="#051513" stroke-linecap="round" stroke-linejoin="round" stroke-width="1.6" d="M17.5 8.333h-15m10.833-6.666V5M6.667 1.667V5M6.5 18.333h7c1.4 0 2.1 0 2.635-.272a2.5 2.5 0 0 0 1.092-1.093c.273-.535.273-1.235.273-2.635v-7c0-1.4 0-2.1-.273-2.635a2.5 2.5 0 0 0-1.092-1.092c-.535-.273-1.235-.273-2.635-.273h-7c-1.4 0-2.1 0-2.635.273a2.5 2.5 0 0 0-1.093 1.092C2.5 5.233 2.5 5.933 2.5 7.333v7c0 1.4 0 2.1.272 2.635a2.5 2.5 0 0 0 1.093 1.093c.535.272 1.235.272 2.635.272"></path>
  </symbol>
  <symbol xmlns="http://www.w3.org/2000/svg" fill="none" viewBox="0 0 20 20" id="icon-dark-theme">
    <g clip-path="url(#a)">
      <path stroke="#051513" stroke-linecap="round" stroke-linejoin="round" stroke-width="1.667" d="M18.296 10.797a6.667 6.667 0 1 1-9.092-9.093 8.334 8.334 0 1 0 9.092 9.093"></path>
    </g>
    <defs>
      <clipPath id="a">
        <path fill="#fff" d="M0 0h20v20H0z"></path>
      </clipPath>
    </defs>
  </symbol>
  <symbol xmlns="http://www.w3.org/2000/svg" fill="none" viewBox="0 0 20 20" id="icon-delete">
    <path stroke="#051513" stroke-linecap="round" stroke-linejoin="round" stroke-width="1.6" d="M7.5 2.5h5M2.5 5h15m-1.667 0-.584 8.766c-.088 1.315-.132 1.973-.416 2.472a2.5 2.5 0 0 1-1.082 1.012c-.516.25-1.175.25-2.493.25H8.742c-1.318 0-1.977 0-2.493-.25a2.5 2.5 0 0 1-1.082-1.012c-.284-.5-.328-1.157-.416-2.472L4.167 5m4.166 3.75v4.167m3.334-4.167v4.167"></path>
  </symbol>
  <symbol xmlns="http://www.w3.org/2000/svg" fill="none" viewBox="0 0 20 20" id="icon-edit">
    <g clip-path="url(#a)">
      <path stroke="#051513" stroke-linecap="round" stroke-linejoin="round" stroke-width="1.6" d="M9.167 3.333h-3.5c-1.4 0-2.1 0-2.635.273a2.5 2.5 0 0 0-1.093 1.092c-.272.535-.272 1.235-.272 2.635v7c0 1.4 0 2.1.272 2.635a2.5 2.5 0 0 0 1.093 1.093c.535.272 1.235.272 2.635.272h7c1.4 0 2.1 0 2.635-.272a2.5 2.5 0 0 0 1.093-1.093c.272-.535.272-1.235.272-2.635v-3.5m-10 2.5h1.395c.408 0 .612 0 .804-.046q.256-.061.481-.2c.169-.102.313-.246.601-.535l7.969-7.969a1.768 1.768 0 0 0-2.5-2.5l-7.969 7.97c-.288.287-.432.432-.535.6q-.139.225-.2.482c-.046.191-.046.395-.046.803z"></path>
    </g>
    <defs>
      <clipPath id="a">
        <path fill="#fff" d="M0 0h20v20H0z"></path>
      </clipPath>
    </defs>
  </symbol>
  <symbol xmlns="http://www.w3.org/2000/svg" fill="none" stroke-width="1.5" stroke="currentColor" viewBox="0 0 24 24" id="icon-eye">
    <path stroke-linecap="round" stroke-linejoin="round" d="M2.036 12.322a1.012 1.012 0 0 1 0-.639C3.423 7.51 7.36 4.5 12 4.5c4.638 0 8.573 3.007 9.963 7.178.07.207.07.431 0 .639C20.577 16.49 16.64 19.5 12 19.5c-4.638 0-8.573-3.007-9.963-7.178Z"></path>
    <path stroke-linecap="round" stroke-linejoin="round" d="M15 12a3 3 0 1 1-6 0 3 3 0 0 1 6 0Z"></path>
  </symbol>
  <symbol xmlns="http://www.w3.org/2000/svg" fill="none" stroke-width="1.5" stroke="currentColor" viewBox="0 0 24 24" id="icon-eye-slash">
    <path stroke-linecap="round" stroke-linejoin="round" d="M3.98 8.223A10.477 10.477 0 0 0 1.934 12C3.226 16.338 7.244 19.5 12 19.5c.993 0 1.953-.138 2.863-.395M6.228 6.228A10.451 10.451 0 0 1 12 4.5c4.756 0 8.773 3.162 10.065 7.498a10.522 10.522 0 0 1-4.293 5.774M6.228 6.228 3 3m3.228 3.228 3.65 3.65m7.894 7.894L21 21m-3.228-3.228-3.65-3.65m0 0a3 3 0 1 0-4.243-4.243m4.242 4.242L9.88 9.88"></path>
  </symbol>
  <symbol xmlns="http://www.w3.org/2000/svg" fill="none" viewBox="0 0 20 20" id="icon-home">
    <path stroke="#051513" stroke-linecap="round" stroke-linejoin="round" stroke-width="1.6" d="M6.667 14.167h6.666M9.181 2.303 3.53 6.7c-.377.294-.566.441-.702.625-.12.163-.21.347-.265.542-.062.22-.062.46-.062.938v6.03c0 .933 0 1.4.182 1.756.16.314.414.569.728.728.357.182.823.182 1.757.182h9.666c.934 0 1.4 0 1.757-.182.314-.16.569-.414.728-.728.182-.357.182-.823.182-1.757V8.804c0-.478 0-.718-.062-.938a1.7 1.7 0 0 0-.265-.542c-.136-.184-.325-.33-.702-.625l-5.652-4.396c-.293-.227-.44-.341-.601-.385a.83.83 0 0 0-.436 0c-.161.044-.308.158-.6.385"></path>
  </symbol>
  <symbol xmlns="http://www.w3.org/2000/svg" fill="none" viewBox="0 0 20 20" id="icon-last-visited">
    <g clip-path="url(#a)">
      <path stroke="#051513" stroke-linecap="round" stroke-linejoin="round" stroke-width="1.6" d="M10 5v5l3.334 1.667m5-1.667a8.333 8.333 0 1 1-16.667 0 8.333 8.333 0 0 1 16.667 0"></path>
    </g>
    <defs>
      <clipPath id="a">
        <path fill="#fff" d="M0 0h20v20H0z"></path>
      </clipPath>
    </defs>
  </symbol>
  <symbol xmlns="http://www.w3.org/2000/svg" fill="none" viewBox="0 0 20 20" id="icon-light-theme">
    <g clip-path="url(#a)">
      <path stroke="#051513" stroke-linecap="round" stroke-linejoin="round" stroke-width="1.6" d="M10 1.667v1.666m0 13.334v1.666M3.334 10H1.667m3.595-4.738L4.084 4.083m10.655 1.179 1.178-1.179M5.262 14.742 4.084 15.92m10.655-1.178 1.178 1.178M18.334 10h-1.667m-2.5 0a4.167 4.167 0 1 1-8.333 0 4.167 4.167 0 0 1 8.333 0"></path>
    </g>
    <defs>
      <clipPath id="a">
        <path fill="#fff" d="M0 0h20v20H0z"></path>
      </clipPath>
    </defs>
  </symbol>
  <symbol xmlns="http://www.w3.org/2000/svg" fill="none" viewBox="0 0 20 20" id="icon-logout">
    <path stroke="#051513" stroke-linecap="round" stroke-linejoin="round" stroke-width="1.6" d="M13.333 14.167 17.5 10m0 0-4.167-4.167M17.5 10h-10m0-7.5h-1c-1.4 0-2.1 0-2.635.272a2.5 2.5 0 0 0-1.093 1.093C2.5 4.4 2.5 5.1 2.5 6.5v7c0 1.4 0 2.1.272 2.635a2.5 2.5 0 0 0 1.093 1.092C4.4 17.5 5.1 17.5 6.5 17.5h1"></path>
  </symbol>
  <symbol xmlns="http://www.w3.org/2000/svg" fill="none" viewBox="0 0 20 20" id="icon-menu-bookmark">
    <path stroke="#051513" stroke-linecap="round" stroke-linejoin="round" stroke-width="1.6" d="M10 10.833a.833.833 0 1 0 0-1.666.833.833 0 0 0 0 1.666M10 5a.833.833 0 1 0 0-1.667A.833.833 0 0 0 10 5M10 16.667A.833.833 0 1 0 10 15a.833.833 0 0 0 0 1.667"></path>
  </symbol>
  <symbol xmlns="http://www.w3.org/2000/svg" fill="none" viewBox="0 0 20 20" id="icon-menu-hamburger">
    <path stroke="#000" stroke-linecap="round" stroke-linejoin="round" stroke-width="1.6" d="M2.5 10h15m-15-5h15m-15 10h15"></path>
  </symbol>
  <symbol xmlns="http://www.w3.org/2000/svg" fill="none" viewBox="0 0 20 20" id="icon-pin">
    <path stroke="#051513" stroke-linecap="round" stroke-linejoin="round" stroke-width="1.6" d="M10 12.5v5.833M6.668 6.09v1.776c0 .173 0 .26-.017.343a.8.8 0 0 1-.074.211c-.039.076-.093.143-.201.279l-1.308 1.635c-.555.693-.832 1.04-.833 1.332 0 .254.115.494.314.652.228.182.672.182 1.56.182h7.785c.888 0 1.332 0 1.56-.182a.83.83 0 0 0 .314-.652c0-.292-.278-.639-.833-1.332l-1.308-1.635a1.8 1.8 0 0 1-.2-.279.8.8 0 0 1-.075-.211c-.017-.083-.017-.17-.017-.343V6.09c0-.096 0-.144.005-.191a1 1 0 0 1 .024-.125c.013-.045.03-.09.066-.18l.84-2.099c.245-.612.368-.919.317-1.165a.83.83 0 0 0-.356-.525c-.21-.138-.54-.138-1.199-.138H6.97c-.66 0-.99 0-1.2.138a.83.83 0 0 0-.355.525c-.05.246.072.553.317 1.165l.84 2.1c.035.089.053.134.066.18q.016.06.024.124c.005.047.005.095.005.191"></path>
  </symbol>
  <symbol xmlns="http://www.w3.org/2000/svg" fill="none" viewBox="0 0 20 20" id="icon-search">
    <path stroke="#051513" stroke-linecap="round" stroke-linejoin="round" stroke-width="1.6" d="m17.5 17.5-3.625-3.625m1.958-4.708a6.667 6.667 0 1 1-13.333 0 6.667 6.667 0 0 1 13.333 0"></path>
  </symbol>
  <symbol xmlns="http://www.w3.org/2000/svg" fill="none" viewBox="0 0 20 20" id="icon-sort">
    <path stroke="#051513" stroke-linecap="round" stroke-linejoin="round" stroke-width="1.6" d="M14.167 3.333v13.334m0 0-3.334-3.334m3.334 3.334 3.333-3.334M5.833 16.667V3.333m0 0L2.5 6.667m3.333-3.334 3.334 3.334"></path>
  </symbol>
  <symbol xmlns="http://www.w3.org/2000/svg" fill="none" viewBox="0 0 20 20" id="icon-theme">
    <g stroke="#051513" stroke-linecap="round" stroke-linejoin="round" stroke-width="1.6" clip-path="url(#a)">
      <path d="M1.667 10A8.333 8.333 0 0 0 10 18.333a2.5 2.5 0 0 0 2.5-2.5v-.416c0-.387 0-.58.022-.743a2.5 2.5 0 0 1 2.152-2.153c.162-.021.356-.021.743-.021h.417a2.5 2.5 0 0 0 2.5-2.5 8.333 8.333 0 0 0-16.667 0"></path>
      <path d="M5.834 10.833a.833.833 0 1 0 0-1.666.833.833 0 0 0 0 1.666M13.334 7.5a.833.833 0 1 0 0-1.667.833.833 0 0 0 0 1.667M8.334 6.667a.833.833 0 1 0 0-1.667.833.833 0 0 0 0 1.667"></path>
    </g>
    <defs>
      <clipPath id="a">
        <path fill="#fff" d="M0 0h20v20H0z"></path>
      </clipPath>
    </defs>
  </symbol>
  <symbol xmlns="http://www.w3.org/2000/svg" fill="none" viewBox="0 0 20 20" id="icon-unarchive">
    <path stroke="#051513" stroke-linecap="round" stroke-linejoin="round" stroke-width="1.6" d="M1.667 8.333S3.337 6.057 4.695 4.7a7.5 7.5 0 1 1-1.902 7.385m-1.126-3.75v-5m0 5h5"></path>
  </symbol>
  <symbol xmlns="http://www.w3.org/2000/svg" fill="none" viewBox="0 0 20 20" id="icon-unpin">
    <path stroke="#000" stroke-linecap="round" stroke-linejoin="round" stroke-width="1.6" d="m6.98 13.014-4.713 4.714M9.745 5.535l-1.3 1.3c-.106.107-.16.16-.22.202a1 1 0 0 1-.172.092c-.069.027-.143.042-.29.071l-3.053.611c-.794.159-1.19.238-1.376.447a.83.83 0 0 0-.203.668c.039.277.325.563.897 1.135l5.905 5.905c.572.572.858.858 1.136.897a.83.83 0 0 0 .667-.202c.21-.186.289-.583.447-1.376l.611-3.054c.03-.147.044-.22.071-.29a1 1 0 0 1 .092-.172c.042-.06.096-.113.202-.22l1.3-1.3c.068-.068.102-.102.14-.132a1 1 0 0 1 .104-.07 2 2 0 0 1 .174-.08l2.079-.892c.606-.26.91-.39 1.047-.6a.83.83 0 0 0 .12-.622c-.05-.246-.283-.48-.75-.946l-4.286-4.286c-.466-.466-.7-.7-.946-.75a.83.83 0 0 0-.622.12c-.21.138-.34.441-.6 1.048l-.89 2.078c-.039.088-.058.133-.081.174a1 1 0 0 1-.071.105c-.03.037-.064.071-.132.139"></path>
  </symbol>
  <symbol xmlns="http://www.w3.org/2000/svg" fill="none" viewBox="0 0 20 20" id="icon-visit">
    <path stroke="#051513" stroke-linecap="round" stroke-linejoin="round" stroke-width="1.6" d="M17.5 7.5v-5m0 0h-5m5 0-6.667 6.667m-2.5-5H6.5c-1.4 0-2.1 0-2.635.272a2.5 2.5 0 0 0-1.093 1.093C2.5 6.066 2.5 6.767 2.5 8.167V13.5c0 1.4 0 2.1.272 2.635a2.5 2.5 0 0 0 1.093 1.092C4.4 17.5 5.1 17.5 6.5 17.5h5.333c1.4 0 2.1 0 2.635-.273a2.5 2.5 0 0 0 1.093-1.092c.272-.535.272-1.235.272-2.635v-1.833"></path>
  </symbol>
  <symbol xmlns="http://www.w3.org/2000/svg" fill="none" viewBox="0 0 20 20" id="icon-visit-count">
    <path stroke="#051513" stroke-linecap="round" stroke-linejoin="round" stroke-width="1.6" d="M2.017 10.594c-.114-.18-.17-.27-.202-.408a1 1 0 0 1 0-.372c.032-.139.088-.229.202-.408.938-1.485 3.73-5.24 7.983-5.24 4.255 0 7.046 3.755 7.984 5.24.113.18.17.27.202.408a1 1 0 0 1 0 .372c-.032.139-.089.229-.202.408-.938 1.485-3.73 5.24-7.984 5.24s-7.045-3.755-7.983-5.24"></path>
    <path stroke="#051513" stroke-linecap="round" stroke-linejoin="round" stroke-width="1.6" d="M10 12.5a2.5 2.5 0 1 0 0-5 2.5 2.5 0 0 0 0 5"></path>
  </symbol>
  <symbol xmlns="http://www.w3.org/2000/svg" fill="none" viewBox="0 0 214 32" id="logo-dark-theme">
    <g clip-path="url(#a)">
      <path fill="#fff" d="M7 5h18v23H7z"></path>
      <path fill="#014745" d="M11.735 11.757c0-.442 0-1.363 2.014-1.363h4.496c2.012 0 2.012.934 2.012 1.494l.003 9.316-3.636-2.056a1.23 1.23 0 0 0-1.206-.002l-3.683 2.064z"></path>
      <path fill="#014745" fill-rule="evenodd" d="M22.919 31.59H9.078C3.892 31.59.41 27.945.41 22.522V9.479C.41 4.055 3.892.41 9.078.41H22.92c5.186 0 8.67 3.645 8.67 9.069v13.043c0 5.423-3.486 9.068-8.671 9.068M9.275 22.166a1.904 1.904 0 0 0 2.832 1.659l3.91-2.193 3.873 2.19a1.907 1.907 0 0 0 2.593-.734 1.9 1.9 0 0 0 .24-.926l-.004-10.274c0-2.477-1.672-3.955-4.473-3.955H13.75c-2.76 0-4.475 1.465-4.475 3.824z" clip-rule="evenodd"></path>
    </g>
    <path fill="#fff" d="M46.836 16.76h-3.652l-.02-2.012h3.066q.81 0 1.329-.205.517-.215.771-.615.264-.411.264-.996 0-.664-.254-1.075-.244-.41-.772-.595-.517-.186-1.337-.186h-2.032V23h-2.93V8.781h4.962q1.24 0 2.216.235.987.234 1.67.713.684.478 1.045 1.21.361.723.361 1.72a3.36 3.36 0 0 1-.4 1.62q-.39.743-1.24 1.211-.84.469-2.198.518zM46.709 23h-4.326l1.142-2.285h3.184q.771 0 1.26-.244.488-.254.722-.684.235-.43.235-.986 0-.625-.215-1.084a1.45 1.45 0 0 0-.664-.703q-.46-.255-1.211-.254h-2.822l.02-2.012h3.515l.674.791q1.298-.02 2.09.459.8.47 1.162 1.22.37.753.37 1.612 0 1.368-.595 2.305-.596.927-1.748 1.396-1.143.47-2.793.469m6.509-5.176v-.205q0-1.162.332-2.139a4.95 4.95 0 0 1 .967-1.709 4.3 4.3 0 0 1 1.562-1.123q.928-.41 2.13-.41 1.2 0 2.138.41.937.4 1.572 1.124.645.721.977 1.708.332.976.332 2.14v.204q0 1.152-.332 2.139a5 5 0 0 1-.977 1.709 4.3 4.3 0 0 1-1.562 1.123q-.928.4-2.13.4-1.2 0-2.138-.4a4.4 4.4 0 0 1-1.572-1.123 5.1 5.1 0 0 1-.967-1.71 6.7 6.7 0 0 1-.332-2.138m2.813-.205v.205q0 .664.117 1.24.117.577.37 1.016.264.43.684.674t1.026.244q.585 0 1.006-.244.42-.245.673-.674a3.4 3.4 0 0 0 .372-1.015q.127-.577.127-1.24v-.206q0-.645-.127-1.21a3.2 3.2 0 0 0-.381-1.016 1.9 1.9 0 0 0-.674-.703q-.42-.255-1.016-.255t-1.015.255q-.41.253-.674.703a3.4 3.4 0 0 0-.371 1.015 6 6 0 0 0-.117 1.211m8.276.205v-.205q0-1.162.332-2.139a4.95 4.95 0 0 1 .967-1.709 4.3 4.3 0 0 1 1.562-1.123q.928-.41 2.13-.41 1.2 0 2.138.41.938.4 1.572 1.124.645.721.977 1.708.332.976.332 2.14v.204q0 1.152-.332 2.139a5 5 0 0 1-.977 1.709 4.3 4.3 0 0 1-1.562 1.123q-.928.4-2.13.4-1.2 0-2.138-.4a4.4 4.4 0 0 1-1.572-1.123 5.1 5.1 0 0 1-.967-1.71 6.7 6.7 0 0 1-.332-2.138m2.813-.205v.205q0 .664.117 1.24.118.577.37 1.016.265.43.684.674t1.026.244q.585 0 1.006-.244.42-.245.674-.674a3.4 3.4 0 0 0 .37-1.015q.127-.577.127-1.24v-.206q0-.645-.126-1.21a3.2 3.2 0 0 0-.381-1.016q-.255-.45-.674-.703-.42-.255-1.016-.255-.595 0-1.015.255-.41.253-.674.703a3.4 3.4 0 0 0-.371 1.015 6 6 0 0 0-.117 1.211M78.658 7.99V23h-2.813V7.99zm6.66 4.444-4.59 5.234-2.46 2.49-1.026-2.031 1.953-2.48 2.744-3.213zM82.398 23l-3.125-4.883 1.943-1.699L85.64 23zm6.743-8.379V23H86.32V12.434h2.647zm-.39 2.725h-.782q0-1.104.264-2.031a5 5 0 0 1 .791-1.622q.528-.693 1.299-1.074.771-.38 1.787-.38.703-.001 1.29.214.585.206 1.005.654.43.44.664 1.153.234.703.234 1.69V23h-2.812v-6.738q0-.723-.195-1.114a1.1 1.1 0 0 0-.557-.546 2.1 2.1 0 0 0-.85-.157q-.546 0-.957.225-.4.225-.664.625-.263.39-.39.918-.127.527-.127 1.133m6.289-.323-1.006.127q0-1.035.254-1.923a4.9 4.9 0 0 1 .771-1.563q.518-.674 1.28-1.045.761-.38 1.758-.38.761 0 1.386.224.626.215 1.065.693.449.47.683 1.23.244.763.244 1.866V23h-2.822v-6.748q0-.733-.195-1.113a1.02 1.02 0 0 0-.547-.537 2.1 2.1 0 0 0-.84-.157q-.508 0-.889.205-.38.196-.634.547-.255.352-.381.82a3.8 3.8 0 0 0-.127 1.006m14.116 3.594V15.91q0-.507-.166-.869a1.23 1.23 0 0 0-.517-.576q-.342-.205-.889-.205-.47 0-.811.166a1.18 1.18 0 0 0-.527.459 1.26 1.26 0 0 0-.185.693h-2.813q0-.674.313-1.28.312-.605.908-1.064a4.5 4.5 0 0 1 1.416-.732 6.1 6.1 0 0 1 1.855-.264q1.231 0 2.188.41a3.35 3.35 0 0 1 1.504 1.23q.556.821.556 2.052v4.521q0 .87.108 1.426.106.547.312.957V23h-2.842a4.1 4.1 0 0 1-.312-1.074 9 9 0 0 1-.098-1.309m.371-4.053.02 1.592h-1.572q-.557 0-.967.127a1.8 1.8 0 0 0-.674.361 1.4 1.4 0 0 0-.391.528 1.8 1.8 0 0 0-.117.664q0 .36.166.654.166.283.479.45.312.156.732.156.635 0 1.104-.254.468-.255.722-.625.264-.372.274-.703l.742 1.191a4.8 4.8 0 0 1-.43.83q-.263.43-.674.81a3.5 3.5 0 0 1-.986.616q-.576.234-1.367.234a4.1 4.1 0 0 1-1.826-.4 3.3 3.3 0 0 1-1.289-1.123 2.95 2.95 0 0 1-.469-1.64q0-.831.312-1.475.314-.645.918-1.084.616-.45 1.534-.674.918-.234 2.128-.235zm7.242-1.826V23h-2.813V12.434h2.647zm3.183-2.373-.048 2.608a7 7 0 0 0-.499-.05 5 5 0 0 0-.517-.028 3.1 3.1 0 0 0-1.035.156 1.84 1.84 0 0 0-.723.44 1.9 1.9 0 0 0-.43.712q-.136.42-.156.957l-.566-.176q0-1.025.205-1.884.205-.87.596-1.514.4-.645.976-.996a2.5 2.5 0 0 1 1.318-.352q.235 0 .479.04.244.029.4.087m3.941-4.375V23h-2.813V7.99zm6.66 4.444-4.59 5.234-2.461 2.49-1.025-2.031 1.953-2.48 2.744-3.213zM127.633 23l-3.125-4.883 1.944-1.699L130.875 23zm10.225-14.219h2.481l3.652 10.44 3.652-10.44h2.481L144.987 23h-1.992zm-1.338 0h2.471l.449 10.176V23h-2.92zm12.471 0h2.48V23h-2.929v-4.043zm10.376 11.836V15.91q0-.507-.166-.869a1.24 1.24 0 0 0-.517-.576q-.342-.205-.889-.205-.47 0-.811.166a1.18 1.18 0 0 0-.527.459 1.27 1.27 0 0 0-.186.693h-2.812q0-.674.312-1.28.314-.605.909-1.064a4.5 4.5 0 0 1 1.416-.732 6.1 6.1 0 0 1 1.855-.264q1.23 0 2.188.41a3.35 3.35 0 0 1 1.504 1.23q.556.821.556 2.052v4.521q0 .87.108 1.426.107.547.312.957V23h-2.842a4 4 0 0 1-.312-1.074 9 9 0 0 1-.098-1.309m.371-4.053.02 1.592h-1.572a3.3 3.3 0 0 0-.967.127 1.8 1.8 0 0 0-.674.361 1.4 1.4 0 0 0-.391.528 1.8 1.8 0 0 0-.117.664q0 .36.166.654.166.283.479.45.312.156.732.156.635 0 1.104-.254.468-.255.722-.625.264-.372.274-.703l.742 1.191a5 5 0 0 1-.43.83q-.263.43-.674.81a3.5 3.5 0 0 1-.986.616q-.576.234-1.367.234a4.1 4.1 0 0 1-1.826-.4 3.3 3.3 0 0 1-1.289-1.123 2.95 2.95 0 0 1-.469-1.64q0-.831.312-1.475.313-.645.918-1.084.615-.45 1.534-.674.917-.234 2.128-.235zm7.183-1.874V23h-2.812V12.434h2.636zm-.41 2.656h-.762q0-1.173.303-2.11.303-.947.85-1.611.546-.675 1.298-1.025a3.9 3.9 0 0 1 1.7-.362q.742 0 1.357.215a2.6 2.6 0 0 1 1.055.684q.449.468.683 1.24.244.771.244 1.885V23h-2.832v-6.748q0-.703-.195-1.094a1.1 1.1 0 0 0-.576-.547q-.37-.166-.918-.166a2.06 2.06 0 0 0-.986.225q-.411.225-.684.625a3 3 0 0 0-.4.918q-.137.527-.137 1.133m14.37 3.271V15.91q0-.507-.166-.869a1.23 1.23 0 0 0-.517-.576q-.342-.205-.889-.205-.47 0-.811.166a1.18 1.18 0 0 0-.527.459 1.26 1.26 0 0 0-.185.693h-2.813q0-.674.313-1.28.312-.605.908-1.064a4.5 4.5 0 0 1 1.416-.732 6.1 6.1 0 0 1 1.855-.264q1.231 0 2.188.41a3.35 3.35 0 0 1 1.504 1.23q.556.821.556 2.052v4.521q0 .87.108 1.426.106.547.312.957V23h-2.842a4.1 4.1 0 0 1-.312-1.074 9 9 0 0 1-.098-1.309m.371-4.053.02 1.592H179.7q-.557 0-.967.127a1.8 1.8 0 0 0-.674.361 1.4 1.4 0 0 0-.391.528 1.8 1.8 0 0 0-.117.664q0 .36.166.654.166.283.479.45.312.156.732.156.634 0 1.104-.254.468-.255.722-.625.264-.372.274-.703l.742 1.191a4.8 4.8 0 0 1-.43.83q-.263.43-.674.81a3.5 3.5 0 0 1-.986.616q-.576.234-1.367.234a4.1 4.1 0 0 1-1.826-.4 3.3 3.3 0 0 1-1.289-1.123 2.95 2.95 0 0 1-.469-1.64q0-.831.312-1.475.313-.645.918-1.084.616-.45 1.534-.674.918-.234 2.128-.235zm11.119-4.13h2.549v10.214q0 1.446-.645 2.452a3.98 3.98 0 0 1-1.777 1.533q-1.142.527-2.657.527-.663 0-1.406-.176a5.6 5.6 0 0 1-1.406-.547 3.7 3.7 0 0 1-1.113-.937l1.24-1.66q.488.566 1.133.879a3.14 3.14 0 0 0 1.425.322q.762 0 1.29-.283.526-.274.81-.81.283-.528.283-1.28v-7.793zm-7.11 5.41v-.205q0-1.212.293-2.198.303-.995.85-1.709.556-.713 1.348-1.103.79-.39 1.787-.39 1.055 0 1.767.39.713.39 1.172 1.113.46.713.713 1.69.264.966.41 2.119V18q-.146 1.105-.439 2.05a6.3 6.3 0 0 1-.772 1.66 3.4 3.4 0 0 1-1.191 1.095q-.704.39-1.68.39t-1.767-.4a3.95 3.95 0 0 1-1.338-1.123 5.4 5.4 0 0 1-.86-1.7 7.4 7.4 0 0 1-.293-2.128m2.813-.205v.205q0 .654.127 1.22.127.567.39 1.006.274.43.674.674.41.234.967.235.771 0 1.26-.323.487-.332.732-.908.244-.576.283-1.328v-1.28a4.3 4.3 0 0 0-.166-1.103 2.6 2.6 0 0 0-.41-.85 1.8 1.8 0 0 0-.683-.546q-.42-.196-.996-.196-.558 0-.967.254a2.1 2.1 0 0 0-.674.674 3.4 3.4 0 0 0-.4 1.016q-.138.576-.137 1.25m13.696 5.556q-1.23 0-2.207-.39a4.85 4.85 0 0 1-1.66-1.104 4.9 4.9 0 0 1-1.035-1.63 5.5 5.5 0 0 1-.361-1.993v-.39q0-1.202.341-2.198.342-.996.977-1.728.645-.733 1.562-1.123.918-.4 2.071-.4 1.124 0 1.992.37a3.9 3.9 0 0 1 1.455 1.055q.596.684.899 1.64.302.948.302 2.11v1.172h-8.398V16.71h5.635v-.215q0-.585-.215-1.045a1.66 1.66 0 0 0-.625-.742q-.42-.274-1.074-.274-.558 0-.958.245-.4.243-.654.683a3.7 3.7 0 0 0-.371 1.035q-.117.586-.117 1.29v.39q0 .635.176 1.172.185.537.517.928.342.39.821.605a2.7 2.7 0 0 0 1.103.215q.762 0 1.416-.293a3.07 3.07 0 0 0 1.143-.908l1.367 1.484q-.332.48-.908.918a4.9 4.9 0 0 1-1.368.723q-.8.273-1.826.273m8.55-8.457V23h-2.812V12.434h2.646zm3.184-2.373-.049 2.608a7 7 0 0 0-.498-.05 5 5 0 0 0-.518-.028 3.1 3.1 0 0 0-1.035.156 1.84 1.84 0 0 0-.722.44 1.9 1.9 0 0 0-.43.712q-.137.42-.156.957l-.567-.176q0-1.025.205-1.884.206-.87.596-1.514.4-.645.977-.996a2.5 2.5 0 0 1 1.318-.352q.234 0 .479.04.243.029.4.087"></path>
    <defs>
      <clipPath id="a">
        <path fill="#fff" d="M0 0h32v32H0z"></path>
      </clipPath>
    </defs>
  </symbol>
  <symbol xmlns="http://www.w3.org/2000/svg" fill="none" viewBox="0 0 214 32" id="logo-light-theme">
    <g clip-path="url(#a)">
      <path fill="#fff" d="M7 5h18v23H7z"></path>
      <path fill="#014745" d="M11.735 11.757c0-.442 0-1.363 2.014-1.363h4.496c2.012 0 2.012.934 2.012 1.494l.003 9.316-3.636-2.056a1.23 1.23 0 0 0-1.206-.002l-3.683 2.064z"></path>
      <path fill="#014745" fill-rule="evenodd" d="M22.919 31.59H9.078C3.892 31.59.41 27.945.41 22.522V9.479C.41 4.055 3.892.41 9.078.41H22.92c5.186 0 8.67 3.645 8.67 9.069v13.043c0 5.423-3.486 9.068-8.671 9.068M9.275 22.166a1.904 1.904 0 0 0 2.832 1.659l3.91-2.193 3.873 2.19a1.907 1.907 0 0 0 2.593-.734 1.9 1.9 0 0 0 .24-.926l-.004-10.274c0-2.477-1.672-3.955-4.473-3.955H13.75c-2.76 0-4.475 1.465-4.475 3.824z" clip-rule="evenodd"></path>
    </g>
    <path fill="#051513" d="M46.836 16.76h-3.652l-.02-2.012h3.066q.81 0 1.329-.205.517-.215.771-.615.264-.411.264-.996 0-.664-.254-1.075-.244-.41-.772-.595-.517-.186-1.337-.186h-2.032V23h-2.93V8.781h4.962q1.24 0 2.216.235.987.234 1.67.713.684.478 1.045 1.21.361.723.361 1.72a3.36 3.36 0 0 1-.4 1.62q-.39.743-1.24 1.211-.84.469-2.198.518zM46.709 23h-4.326l1.142-2.285h3.184q.771 0 1.26-.244.488-.254.722-.684.235-.43.235-.986 0-.625-.215-1.084a1.45 1.45 0 0 0-.664-.703q-.46-.255-1.211-.254h-2.822l.02-2.012h3.515l.674.791q1.298-.02 2.09.459.8.47 1.162 1.22.37.753.37 1.612 0 1.368-.595 2.305-.596.927-1.748 1.396-1.143.47-2.793.469m6.509-5.176v-.205q0-1.162.332-2.139a4.95 4.95 0 0 1 .967-1.709 4.3 4.3 0 0 1 1.562-1.123q.928-.41 2.13-.41 1.2 0 2.138.41.937.4 1.572 1.124.645.721.977 1.708.332.976.332 2.14v.204q0 1.152-.332 2.139a5 5 0 0 1-.977 1.709 4.3 4.3 0 0 1-1.562 1.123q-.928.4-2.13.4-1.2 0-2.138-.4a4.4 4.4 0 0 1-1.572-1.123 5.1 5.1 0 0 1-.967-1.71 6.7 6.7 0 0 1-.332-2.138m2.813-.205v.205q0 .664.117 1.24.117.577.37 1.016.264.43.684.674t1.026.244q.585 0 1.006-.244.42-.245.673-.674a3.4 3.4 0 0 0 .372-1.015q.127-.577.127-1.24v-.206q0-.645-.127-1.21a3.2 3.2 0 0 0-.381-1.016 1.9 1.9 0 0 0-.674-.703q-.42-.255-1.016-.255t-1.015.255q-.41.253-.674.703a3.4 3.4 0 0 0-.371 1.015 6 6 0 0 0-.117 1.211m8.276.205v-.205q0-1.162.332-2.139a4.95 4.95 0 0 1 .967-1.709 4.3 4.3 0 0 1 1.562-1.123q.928-.41 2.13-.41 1.2 0 2.138.41.938.4 1.572 1.124.645.721.977 1.708.332.976.332 2.14v.204q0 1.152-.332 2.139a5 5 0 0 1-.977 1.709 4.3 4.3 0 0 1-1.562 1.123q-.928.4-2.13.4-1.2 0-2.138-.4a4.4 4.4 0 0 1-1.572-1.123 5.1 5.1 0 0 1-.967-1.71 6.7 6.7 0 0 1-.332-2.138m2.813-.205v.205q0 .664.117 1.24.118.577.37 1.016.265.43.684.674t1.026.244q.585 0 1.006-.244.42-.245.674-.674a3.4 3.4 0 0 0 .37-1.015q.127-.577.127-1.24v-.206q0-.645-.126-1.21a3.2 3.2 0 0 0-.381-1.016q-.255-.45-.674-.703-.42-.255-1.016-.255-.595 0-1.015.255-.41.253-.674.703a3.4 3.4 0 0 0-.371 1.015 6 6 0 0 0-.117 1.211M78.658 7.99V23h-2.813V7.99zm6.66 4.444-4.59 5.234-2.46 2.49-1.026-2.031 1.953-2.48 2.744-3.213zM82.398 23l-3.125-4.883 1.943-1.699L85.64 23zm6.743-8.379V23H86.32V12.434h2.647zm-.39 2.725h-.782q0-1.104.264-2.031a5 5 0 0 1 .791-1.622q.528-.693 1.299-1.074.771-.38 1.787-.38.703-.001 1.29.214.585.206 1.005.654.43.44.664 1.153.234.703.234 1.69V23h-2.812v-6.738q0-.723-.195-1.114a1.1 1.1 0 0 0-.557-.546 2.1 2.1 0 0 0-.85-.157q-.546 0-.957.225-.4.225-.664.625-.263.39-.39.918-.127.527-.127 1.133m6.289-.323-1.006.127q0-1.035.254-1.923a4.9 4.9 0 0 1 .771-1.563q.518-.674 1.28-1.045.761-.38 1.758-.38.761 0 1.386.224.626.215 1.065.693.449.47.683 1.23.244.763.244 1.866V23h-2.822v-6.748q0-.733-.195-1.113a1.02 1.02 0 0 0-.547-.537 2.1 2.1 0 0 0-.84-.157q-.508 0-.889.205-.38.196-.634.547-.255.352-.381.82a3.8 3.8 0 0 0-.127 1.006m14.116 3.594V15.91q0-.507-.166-.869a1.23 1.23 0 0 0-.517-.576q-.342-.205-.889-.205-.47 0-.811.166a1.18 1.18 0 0 0-.527.459 1.26 1.26 0 0 0-.185.693h-2.813q0-.674.313-1.28.312-.605.908-1.064a4.5 4.5 0 0 1 1.416-.732 6.1 6.1 0 0 1 1.855-.264q1.231 0 2.188.41a3.35 3.35 0 0 1 1.504 1.23q.556.821.556 2.052v4.521q0 .87.108 1.426.106.547.312.957V23h-2.842a4.1 4.1 0 0 1-.312-1.074 9 9 0 0 1-.098-1.309m.371-4.053.02 1.592h-1.572q-.557 0-.967.127a1.8 1.8 0 0 0-.674.361 1.4 1.4 0 0 0-.391.528 1.8 1.8 0 0 0-.117.664q0 .36.166.654.166.283.479.45.312.156.732.156.635 0 1.104-.254.468-.255.722-.625.264-.372.274-.703l.742 1.191a4.8 4.8 0 0 1-.43.83q-.263.43-.674.81a3.5 3.5 0 0 1-.986.616q-.576.234-1.367.234a4.1 4.1 0 0 1-1.826-.4 3.3 3.3 0 0 1-1.289-1.123 2.95 2.95 0 0 1-.469-1.64q0-.831.312-1.475.314-.645.918-1.084.616-.45 1.534-.674.918-.234 2.128-.235zm7.242-1.826V23h-2.813V12.434h2.647zm3.183-2.373-.048 2.608a7 7 0 0 0-.499-.05 5 5 0 0 0-.517-.028 3.1 3.1 0 0 0-1.035.156 1.84 1.84 0 0 0-.723.44 1.9 1.9 0 0 0-.43.712q-.136.42-.156.957l-.566-.176q0-1.025.205-1.884.205-.87.596-1.514.4-.645.976-.996a2.5 2.5 0 0 1 1.318-.352q.235 0 .479.04.244.029.4.087m3.941-4.375V23h-2.813V7.99zm6.66 4.444-4.59 5.234-2.461 2.49-1.025-2.031 1.953-2.48 2.744-3.213zM127.633 23l-3.125-4.883 1.944-1.699L130.875 23zm10.225-14.219h2.481l3.652 10.44 3.652-10.44h2.481L144.987 23h-1.992zm-1.338 0h2.471l.449 10.176V23h-2.92zm12.471 0h2.48V23h-2.929v-4.043zm10.376 11.836V15.91q0-.507-.166-.869a1.24 1.24 0 0 0-.517-.576q-.342-.205-.889-.205-.47 0-.811.166a1.18 1.18 0 0 0-.527.459 1.27 1.27 0 0 0-.186.693h-2.812q0-.674.312-1.28.314-.605.909-1.064a4.5 4.5 0 0 1 1.416-.732 6.1 6.1 0 0 1 1.855-.264q1.23 0 2.188.41a3.35 3.35 0 0 1 1.504 1.23q.556.821.556 2.052v4.521q0 .87.108 1.426.107.547.312.957V23h-2.842a4 4 0 0 1-.312-1.074 9 9 0 0 1-.098-1.309m.371-4.053.02 1.592h-1.572a3.3 3.3 0 0 0-.967.127 1.8 1.8 0 0 0-.674.361 1.4 1.4 0 0 0-.391.528 1.8 1.8 0 0 0-.117.664q0 .36.166.654.166.283.479.45.312.156.732.156.635 0 1.104-.254.468-.255.722-.625.264-.372.274-.703l.742 1.191a5 5 0 0 1-.43.83q-.263.43-.674.81a3.5 3.5 0 0 1-.986.616q-.576.234-1.367.234a4.1 4.1 0 0 1-1.826-.4 3.3 3.3 0 0 1-1.289-1.123 2.95 2.95 0 0 1-.469-1.64q0-.831.312-1.475.313-.645.918-1.084.615-.45 1.534-.674.917-.234 2.128-.235zm7.183-1.874V23h-2.812V12.434h2.636zm-.41 2.656h-.762q0-1.173.303-2.11.303-.947.85-1.611.546-.675 1.298-1.025a3.9 3.9 0 0 1 1.7-.362q.742 0 1.357.215a2.6 2.6 0 0 1 1.055.684q.449.468.683 1.24.244.771.244 1.885V23h-2.832v-6.748q0-.703-.195-1.094a1.1 1.1 0 0 0-.576-.547q-.37-.166-.918-.166a2.06 2.06 0 0 0-.986.225q-.411.225-.684.625a3 3 0 0 0-.4.918q-.137.527-.137 1.133m14.37 3.271V15.91q0-.507-.166-.869a1.23 1.23 0 0 0-.517-.576q-.342-.205-.889-.205-.47 0-.811.166a1.18 1.18 0 0 0-.527.459 1.26 1.26 0 0 0-.185.693h-2.813q0-.674.313-1.28.312-.605.908-1.064a4.5 4.5 0 0 1 1.416-.732 6.1 6.1 0 0 1 1.855-.264q1.231 0 2.188.41a3.35 3.35 0 0 1 1.504 1.23q.556.821.556 2.052v4.521q0 .87.108 1.426.106.547.312.957V23h-2.842a4.1 4.1 0 0 1-.312-1.074 9 9 0 0 1-.098-1.309m.371-4.053.02 1.592H179.7q-.557 0-.967.127a1.8 1.8 0 0 0-.674.361 1.4 1.4 0 0 0-.391.528 1.8 1.8 0 0 0-.117.664q0 .36.166.654.166.283.479.45.312.156.732.156.634 0 1.104-.254.468-.255.722-.625.264-.372.274-.703l.742 1.191a4.8 4.8 0 0 1-.43.83q-.263.43-.674.81a3.5 3.5 0 0 1-.986.616q-.576.234-1.367.234a4.1 4.1 0 0 1-1.826-.4 3.3 3.3 0 0 1-1.289-1.123 2.95 2.95 0 0 1-.469-1.64q0-.831.312-1.475.313-.645.918-1.084.616-.45 1.534-.674.918-.234 2.128-.235zm11.119-4.13h2.549v10.214q0 1.446-.645 2.452a3.98 3.98 0 0 1-1.777 1.533q-1.142.527-2.657.527-.663 0-1.406-.176a5.6 5.6 0 0 1-1.406-.547 3.7 3.7 0 0 1-1.113-.937l1.24-1.66q.488.566 1.133.879a3.14 3.14 0 0 0 1.425.322q.762 0 1.29-.283.526-.274.81-.81.283-.528.283-1.28v-7.793zm-7.11 5.41v-.205q0-1.212.293-2.198.303-.995.85-1.709.556-.713 1.348-1.103.79-.39 1.787-.39 1.055 0 1.767.39.713.39 1.172 1.113.46.713.713 1.69.264.966.41 2.119V18q-.146 1.105-.439 2.05a6.3 6.3 0 0 1-.772 1.66 3.4 3.4 0 0 1-1.191 1.095q-.704.39-1.68.39t-1.767-.4a3.95 3.95 0 0 1-1.338-1.123 5.4 5.4 0 0 1-.86-1.7 7.4 7.4 0 0 1-.293-2.128m2.813-.205v.205q0 .654.127 1.22.127.567.39 1.006.274.43.674.674.41.234.967.235.771 0 1.26-.323.487-.332.732-.908.244-.576.283-1.328v-1.28a4.3 4.3 0 0 0-.166-1.103 2.6 2.6 0 0 0-.41-.85 1.8 1.8 0 0 0-.683-.546q-.42-.196-.996-.196-.558 0-.967.254a2.1 2.1 0 0 0-.674.674 3.4 3.4 0 0 0-.4 1.016q-.138.576-.137 1.25m13.696 5.556q-1.23 0-2.207-.39a4.85 4.85 0 0 1-1.66-1.104 4.9 4.9 0 0 1-1.035-1.63 5.5 5.5 0 0 1-.361-1.993v-.39q0-1.202.341-2.198.342-.996.977-1.728.645-.733 1.562-1.123.918-.4 2.071-.4 1.124 0 1.992.37a3.9 3.9 0 0 1 1.455 1.055q.596.684.899 1.64.302.948.302 2.11v1.172h-8.398V16.71h5.635v-.215q0-.585-.215-1.045a1.66 1.66 0 0 0-.625-.742q-.42-.274-1.074-.274-.558 0-.958.245-.4.243-.654.683a3.7 3.7 0 0 0-.371 1.035q-.117.586-.117 1.29v.39q0 .635.176 1.172.185.537.517.928.342.39.821.605a2.7 2.7 0 0 0 1.103.215q.762 0 1.416-.293a3.07 3.07 0 0 0 1.143-.908l1.367 1.484q-.332.48-.908.918a4.9 4.9 0 0 1-1.368.723q-.8.273-1.826.273m8.55-8.457V23h-2.812V12.434h2.646zm3.184-2.373-.049 2.608a7 7 0 0 0-.498-.05 5 5 0 0 0-.518-.028 3.1 3.1 0 0 0-1.035.156 1.84 1.84 0 0 0-.722.44 1.9 1.9 0 0 0-.43.712q-.137.42-.156.957l-.567-.176q0-1.025.205-1.884.206-.87.596-1.514.4-.645.977-.996a2.5 2.5 0 0 1 1.318-.352q.234 0 .479.04.243.029.4.087"></path>
    <defs>
      <clipPath id="a">
        <path fill="#fff" d="M0 0h32v32H0z"></path>
      </clipPath>
    </defs>
  </symbol>
</svg>